:SAMPLES-PER-SECOND 30
:FULLY-SPECIFIED
:DEGREES
127
root  15.34284457 36.94444491 -6.794177829 -6.714230061 -57.28160095 7.662129879
lfemur  -22.03149986 -6.767029762 1.514059186
ltibia  -1.491570742e-006 -8.364404493e-007 48.83539963
lfoot  5.521815751e-007 -13.11989689 -5.956679821
ltoes  -4.250644065 -19.5611806 -102.515957
rfemur  -14.01769829 8.037289619 1.171909332
rtibia  -8.727266732e-007 2.533748784e-007 65.32749939
rfoot  -2.316020982e-006 -24.70519829 -11.15999889
rtoes  5.373923086 19.29304026 -105.8922705
lowerback  7.169839859 2.630500078 -3.031260014
upperback  4.314060211 3.170160055 -4.589350224
thorax  0.5444759727 1.530390024 -3.249429941
rclavicle  0 -9.442270133e-015 7.951389973e-016
rhumerus  20.72660065 9.920530319 -73.62879944
rradius  -7.782816926e-012 0.001642658608 141.9609985
rwrist  0.002739921212 0.003270594636 -25.38730049
rthumb  -92.93752616 -24.25625642 -97.11982154
rhand  -7.920061211e-032 -33.2840004 9.303460121
rfingers  -90 -7.125020027 -90
lclavicle  0 -9.442270133e-015 7.951389973e-016
lhumerus  12.79049873 3.528350115 73.83200073
lradius  1.032090299e-011 0.005718162749 137.3159943
lwrist  1.816137865e-011 1.409039812e-011 19.51160049
lthumb  89.89689403 5.08795885 91.16245106
lhand  -1.496451383e-031 -27.76390076 20.11240005
lfingers  90 7.125020027 -90
lowerneck  3.316050053 7.638879776 -10.44909954
upperneck  31.35819817 10.25329971 0.3287844062
head  8.857190132 3.301889896 2.408430099
128
root  15.42755487 36.68088838 -6.573488581 -7.903999805 -57.11330032 8.750209808
lfemur  -22.1312027 -5.923810005 0.3461129069
ltibia  -1.491570742e-006 -8.364404493e-007 49.9213028
lfoot  5.521815751e-007 -15.07649994 -5.656650066
ltoes  -4.250644065 -19.5611806 -102.515957
rfemur  -13.1576004 8.513699532 0.6267889142
rtibia  -8.727266732e-007 2.533748784e-007 65.43250275
rfoot  -2.316020982e-006 -26.53260231 -12.67809963
rtoes  5.373923086 19.29304026 -105.8922705
lowerback  7.16989994 2.73032999 -3.509040117
upperback  4.061029911 3.266860008 -4.457399845
thorax  0.2511020005 1.572440028 -2.858740091
rclavicle  0 -9.442270133e-015 7.951389973e-016
rhumerus  19.67469788 10.95689964 -73.56069946
rradius  -7.782817793e-012 0.001642658608 142.1150055
rwrist  0.002739921212 0.003270594636 -24.27589989
rthumb  -92.93752616 -24.25625642 -97.11982154
rhand  -7.920061211e-032 -33.2840004 9.303460121
rfingers  -90 -7.125020027 -90
lclavicle  0 -9.442270133e-015 7.951389973e-016
lhumerus  11.92930126 2.766210079 74.54239655
lradius  1.032089865e-011 0.005718162749 137.3419952
lwrist  1.816137865e-011 1.409039812e-011 19.06509972
lthumb  89.89689403 5.08795885 91.16245106
lhand  -1.496451383e-031 -27.76390076 20.11240005
lfingers  90 7.125020027 -90
lowerneck  3.326590061 7.662990093 -10.5635004
upperneck  30.49890137 10.20230007 0.6962094307
head  8.510149956 3.371829987 2.522490025
129
root  15.52048931 36.42711189 -6.401089045 -9.246970177 -56.77590179 10.13430023
lfemur  -22.58119392 -5.147809982 -0.9149540067
ltibia  -1.491570742e-006 -8.364404493e-007 51.1702919
lfoot  5.521815751e-007 -16.48259544 -5.522089005
ltoes  -4.250644065 -19.5611806 -102.515957
rfemur  -12.66309929 8.962011337 -0.1582365334
rtibia  -8.727266732e-007 2.533748784e-007 65.8006897
rfoot  -2.316020982e-006 -28.50379372 -13.40119934
rtoes  5.373923086 19.29304026 -105.8922705
lowerback  7.053140163 2.863329887 -4.137320042
upperback  3.974730015 3.410020113 -4.41301012
thorax  0.191700995 1.633900046 -2.469690084
rclavicle  0 -9.442270133e-015 7.951389973e-016
rhumerus  18.78070068 11.73410034 -73.52279663
rradius  -7.782816926e-012 0.001642658608 142.246994
rwrist  0.002739921212 0.003270594636 -23.11310005
rthumb  -92.93752616 -24.25625642 -97.11982154
rhand  -7.920061211e-032 -33.2840004 9.303460121
rfingers  -90 -7.125020027 -90
lclavicle  0 -9.442270133e-015 7.951389973e-016
lhumerus  11.62200069 2.002340078 75.38200378
lradius  1.032090212e-011 0.005718162749 137.1549988
lwrist  1.816137865e-011 1.409039812e-011 18.49119949
lthumb  89.89689403 5.08795885 91.16245106
lhand  -1.496451383e-031 -27.76390076 20.11240005
lfingers  90 7.125020027 -90
lowerneck  3.082999945 7.599420071 -10.80500031
upperneck  29.64450073 10.05080032 1.217640042
head  8.202670097 3.39447999 2.714459896
130
root  15.62502253 36.18533217 -6.27035569 -10.57310009 -56.27560043 11.49909973
lfemur  -23.25460052 -4.662240505 -2.088138819
ltibia  -1.491570742e-006 -8.364404493e-007 52.51309967
lfoot  5.521815751e-007 -17.58169937 -6.2125597
ltoes  -4.250644065 -19.5611806 -102.515957
rfemur  -12.45970154 9.432230949 -0.9716544151
rtibia  -8.727266732e-007 2.533748784e-007 66.47370148
rfoot  -2.316020982e-006 -29.82219887 -14.21840096
rtoes  5.373923086 19.29304026 -105.8922705
lowerback  7.071969986 2.968379974 -4.792210102
upperback  3.951380014 3.503720045 -4.45348978
thorax  0.1239570007 1.669939995 -2.157249928
rclavicle  0 -9.442270133e-015 7.951389973e-016
rhumerus  17.90409851 12.28989983 -73.68109894
rradius  -7.782816926e-012 0.001642658608 142.3130035
rwrist  0.002739921212 0.003270594636 -22.0060997
rthumb  -92.93752616 -24.25625642 -97.11982154
rhand  -7.920061211e-032 -33.2840004 9.303460121
rfingers  -90 -7.125020027 -90
lclavicle  0 -9.442270133e-015 7.951389973e-016
lhumerus  11.44509983 1.285670161 76.01319885
lradius  1.032089865e-011 0.005718162749 137.1040039
lwrist  1.816137865e-011 1.409039812e-011 17.71879959
lthumb  89.89689403 5.08795885 91.16245106
lhand  -1.496451383e-031 -27.76390076 20.11240005
lfingers  90 7.125020027 -90
lowerneck  2.894180059 7.47220993 -10.76850033
upperneck  28.57099915 9.843509674 1.512630343
head  7.845910072 3.410650015 2.774179935
